<?xml version="1.0" encoding="UTF-8"?><svg id="a" xmlns="http://www.w3.org/2000/svg" viewBox="0 0 1260.68 380.24"><defs><style>.b{fill-rule:evenodd;}.b,.c{fill:#020059;}.d{fill:#0057ff;}.e{stroke:#0057ff;}.e,.f{fill:none;stroke-linecap:round;stroke-miterlimit:10;stroke-width:29px;}.f{stroke:#020059;}</style></defs><path class="b" d="M545.03,375.99c2.83,2.83,6.55,4.24,11.17,4.24,4.37,0,7.83-1.41,10.4-4.24,2.83-2.57,4.24-6.17,4.24-10.79v-113.34c8.48,12.08,19.65,21.85,33.52,29.3,14.13,7.2,29.79,10.79,47,10.79,19.78,0,37.5-4.63,53.17-13.88,15.67-9.51,28-22.36,36.99-38.55,9.25-16.19,13.87-34.44,13.87-54.74s-4.75-38.94-14.26-55.13c-9.24-16.19-21.96-28.91-38.14-38.16-16.18-9.51-34.55-14.26-55.09-14.26s-38.14,4.63-54.32,13.88c-15.92,9.25-28.64,21.97-38.14,38.17-9.25,15.93-14,33.92-14.26,53.97v181.96c0,4.63,1.29,8.22,3.85,10.79Zm142.94-121.43c-11.82,6.94-25.17,10.41-40.07,10.41s-27.87-3.47-39.68-10.41c-11.82-6.94-21.06-16.45-27.74-28.53-6.68-12.34-10.02-26.09-10.02-41.25s3.34-29.17,10.02-41.25c6.68-12.08,15.92-21.59,27.74-28.53,11.82-7.2,25.04-10.79,39.68-10.79s28.25,3.6,40.07,10.79c11.82,6.94,21.06,16.45,27.74,28.53,6.93,12.08,10.4,25.83,10.4,41.25s-3.47,28.91-10.4,41.25c-6.68,12.08-15.93,21.59-27.74,28.53Zm120.7,125.67c-4.62,0-8.35-1.41-11.17-4.24-2.57-2.57-3.85-6.17-3.85-10.79V183.24c.25-20.05,5.01-38.04,14.25-53.97,9.51-16.19,22.22-28.91,38.14-38.17,16.19-9.25,34.29-13.88,54.33-13.88s38.91,4.76,55.09,14.26c16.18,9.25,28.9,21.97,38.14,38.16,9.51,16.19,14.26,34.57,14.26,55.13s-4.62,38.55-13.87,54.74c-8.99,16.19-21.32,29.04-36.99,38.55-15.66,9.25-33.39,13.88-53.16,13.88-17.21,0-32.88-3.6-47.01-10.79-13.87-7.45-25.04-17.22-33.52-29.3v113.34c0,4.63-1.41,8.22-4.24,10.79-2.56,2.83-6.03,4.24-10.4,4.24Zm91.7-115.27c14.9,0,28.25-3.47,40.07-10.41,11.81-6.94,21.06-16.45,27.74-28.53,6.93-12.34,10.4-26.09,10.4-41.25s-3.47-29.17-10.4-41.25c-6.68-12.08-15.93-21.59-27.74-28.53-11.82-7.2-25.17-10.79-40.07-10.79s-27.87,3.6-39.69,10.79c-11.81,6.94-21.06,16.45-27.74,28.53-6.67,12.08-10.01,25.83-10.01,41.25s3.34,28.91,10.01,41.25c6.68,12.08,15.93,21.59,27.74,28.53,11.82,6.94,25.05,10.41,39.69,10.41Zm196.95,13.11c15.67,9.25,33.39,13.88,53.17,13.88,16.95,0,32.36-3.6,46.23-10.79,13.87-7.2,25.18-16.96,33.91-29.3v23.52c0,4.37,1.41,7.97,4.24,10.79,2.82,2.57,6.42,3.86,10.78,3.86s7.97-1.29,10.79-3.86c2.83-2.83,4.24-6.42,4.24-10.79v-90.59c-.26-20.56-5.14-38.94-14.64-55.13-9.25-16.19-21.96-28.91-38.14-38.16-15.93-9.51-34.04-14.26-54.33-14.26s-38.52,4.76-54.71,14.26c-16.18,9.25-29.02,21.97-38.52,38.16-9.25,16.19-13.87,34.57-13.87,55.13s4.49,38.55,13.48,54.74c9.25,16.19,21.71,29.04,37.37,38.55Zm95.94-23.51c-11.56,6.94-24.79,10.41-39.69,10.41s-27.87-3.47-39.68-10.41c-11.82-6.94-21.19-16.45-28.13-28.53-6.93-12.34-10.4-26.09-10.4-41.25s3.47-29.17,10.4-41.25c6.94-12.08,16.31-21.59,28.13-28.53,11.81-7.2,25.04-10.79,39.68-10.79s28.13,3.6,39.69,10.79c11.81,6.94,21.06,16.45,27.74,28.53,6.93,12.08,10.4,25.83,10.4,41.25s-3.47,28.91-10.4,41.25c-6.68,12.08-15.93,21.59-27.74,28.53Z"/><path class="c" d="M449.75,90.82c-15.93-9.51-34.04-14.26-54.33-14.26s-38.52,4.75-54.71,14.26c-16.18,9.25-29.02,21.97-38.52,38.16-9.25,16.19-13.87,34.57-13.87,55.13s4.49,38.55,13.48,54.74c9.25,16.19,21.71,29.04,37.37,38.55,15.67,9.25,33.39,13.88,53.17,13.88,16.95,0,32.36-3.6,46.23-10.79,13.87-7.2,25.18-16.96,33.91-29.3v23.52c0,4.37,1.41,7.97,4.24,10.79,2.82,2.57,6.42,3.85,10.78,3.85s7.97-1.28,10.79-3.85c2.83-2.83,4.24-6.43,4.24-10.79v-90.59c-.26-20.56-5.14-38.94-14.64-55.13-9.25-16.19-21.96-28.91-38.14-38.16Zm13.1,134.54c-6.68,12.08-15.93,21.59-27.74,28.53-11.56,6.94-24.79,10.41-39.69,10.41s-27.87-3.47-39.68-10.41c-11.82-6.94-21.19-16.45-28.13-28.53-6.93-12.34-10.4-26.09-10.4-41.25s3.47-29.17,10.4-41.25c6.94-12.08,16.31-21.59,28.13-28.53,11.81-7.2,25.04-10.79,39.68-10.79s28.13,3.6,39.69,10.79c11.81,6.94,21.06,16.45,27.74,28.53,6.93,12.08,10.4,25.83,10.4,41.25s-3.47,28.91-10.4,41.25Z"/><g><path class="e" d="M256.21,92.95c-42.29-4.49-69.5,2.77-92.07,26.94-15.08,16.15-23.99,35.65-27.6,57.2-3.96,23.66-7.14,43.88-23.16,62.88-23.4,27.75-57.22,43.68-98.88,32.57"/><path class="f" d="M14.5,92.95c42.29-4.49,69.5,2.77,92.07,26.94,15.08,16.15,23.99,35.65,27.6,57.2,3.96,23.66,7.14,43.88,23.16,62.88,23.4,27.75,57.22,43.68,98.88,32.57"/></g><g><path class="c" d="M86.69,30.54c0,16.87-13.67,30.54-30.53,30.54s-30.53-13.67-30.53-30.54S39.3,0,56.16,0s30.53,13.67,30.53,30.54Z"/><path class="d" d="M245.08,30.54c0,16.87-13.67,30.54-30.53,30.54s-30.53-13.67-30.53-30.54S197.69,0,214.55,0s30.53,13.67,30.53,30.54Z"/></g></svg>