<svg width="220" height="165" viewBox="0 0 220 165" fill="none" xmlns="http://www.w3.org/2000/svg">
<g clip-path="url(#clip0)">
<path d="M74.1668 17.3979C74.1668 26.6286 66.7049 34.1117 57.5002 34.1117C48.2954 34.1117 40.8335 26.6286 40.8335 17.3979C40.8335 8.1671 48.2954 0.684082 57.5002 0.684082C66.7049 0.684082 74.1668 8.1671 74.1668 17.3979Z" fill="url(#paint0_linear)"/>
<path d="M74.1668 17.3979C74.1668 26.6286 66.7049 34.1117 57.5002 34.1117C48.2954 34.1117 40.8335 26.6286 40.8335 17.3979C40.8335 8.1671 48.2954 0.684082 57.5002 0.684082C66.7049 0.684082 74.1668 8.1671 74.1668 17.3979Z" fill="url(#paint1_linear)" fill-opacity="0.5" style="mix-blend-mode:hard-light"/>
<path d="M74.1668 17.3979C74.1668 26.6286 66.7049 34.1117 57.5002 34.1117C48.2954 34.1117 40.8335 26.6286 40.8335 17.3979C40.8335 8.1671 48.2954 0.684082 57.5002 0.684082C66.7049 0.684082 74.1668 8.1671 74.1668 17.3979Z" fill="url(#paint2_linear)" fill-opacity="0.2" style="mix-blend-mode:soft-light"/>
<path d="M179.167 17.3979C179.167 26.6287 171.705 34.1117 162.5 34.1117C153.295 34.1117 145.833 26.6287 145.833 17.3979C145.833 8.1671 153.295 0.684082 162.5 0.684082C171.705 0.684082 179.167 8.1671 179.167 17.3979Z" fill="url(#paint3_linear)"/>
<path d="M179.167 17.3979C179.167 26.6287 171.705 34.1117 162.5 34.1117C153.295 34.1117 145.833 26.6287 145.833 17.3979C145.833 8.1671 153.295 0.684082 162.5 0.684082C171.705 0.684082 179.167 8.1671 179.167 17.3979Z" fill="url(#paint4_linear)" fill-opacity="0.5" style="mix-blend-mode:hard-light"/>
<path d="M179.167 17.3979C179.167 26.6287 171.705 34.1117 162.5 34.1117C153.295 34.1117 145.833 26.6287 145.833 17.3979C145.833 8.1671 153.295 0.684082 162.5 0.684082C171.705 0.684082 179.167 8.1671 179.167 17.3979Z" fill="url(#paint5_linear)" fill-opacity="0.2" style="mix-blend-mode:soft-light"/>
<path d="M151.637 63.798C156.06 62.8238 158.857 58.4411 157.885 54.009C156.912 49.577 152.539 46.7739 148.117 47.7482C137.081 50.1793 127.215 55.699 119.46 63.3403C116.231 66.5218 116.187 71.724 119.362 74.9598C122.537 78.1956 127.728 78.2396 130.957 75.0581C136.574 69.5234 143.697 65.5473 151.637 63.798Z" fill="url(#paint6_linear)"/>
<path d="M151.637 63.798C156.06 62.8238 158.857 58.4411 157.885 54.009C156.912 49.577 152.539 46.7739 148.117 47.7482C137.081 50.1793 127.215 55.699 119.46 63.3403C116.231 66.5218 116.187 71.724 119.362 74.9598C122.537 78.1956 127.728 78.2396 130.957 75.0581C136.574 69.5234 143.697 65.5473 151.637 63.798Z" fill="url(#paint7_linear)" fill-opacity="0.5" style="mix-blend-mode:hard-light"/>
<path d="M151.637 63.798C156.06 62.8238 158.857 58.4411 157.885 54.009C156.912 49.577 152.539 46.7739 148.117 47.7482C137.081 50.1793 127.215 55.699 119.46 63.3403C116.231 66.5218 116.187 71.724 119.362 74.9598C122.537 78.1956 127.728 78.2396 130.957 75.0581C136.574 69.5234 143.697 65.5473 151.637 63.798Z" fill="url(#paint8_linear)" fill-opacity="0.2" style="mix-blend-mode:soft-light"/>
<path d="M72.1258 47.8021C67.7074 46.8091 63.3223 49.5936 62.3314 54.0215C61.3405 58.4494 64.1191 62.8439 68.5375 63.8369C87.5747 68.1154 101.801 85.1799 101.801 105.563C101.801 133.881 121.625 157.542 148.117 163.378C152.539 164.352 156.912 161.549 157.885 157.117C158.857 152.685 156.06 148.302 151.637 147.328C132.513 143.115 118.199 126.009 118.199 105.563C118.199 77.3316 98.4958 53.7286 72.1258 47.8021Z" fill="url(#paint9_linear)"/>
<path d="M72.1258 47.8021C67.7074 46.8091 63.3223 49.5936 62.3314 54.0215C61.3405 58.4494 64.1191 62.8439 68.5375 63.8369C87.5747 68.1154 101.801 85.1799 101.801 105.563C101.801 133.881 121.625 157.542 148.117 163.378C152.539 164.352 156.912 161.549 157.885 157.117C158.857 152.685 156.06 148.302 151.637 147.328C132.513 143.115 118.199 126.009 118.199 105.563C118.199 77.3316 98.4958 53.7286 72.1258 47.8021Z" fill="url(#paint10_linear)" fill-opacity="0.5" style="mix-blend-mode:hard-light"/>
<path d="M72.1258 47.8021C67.7074 46.8091 63.3223 49.5936 62.3314 54.0215C61.3405 58.4494 64.1191 62.8439 68.5375 63.8369C87.5747 68.1154 101.801 85.1799 101.801 105.563C101.801 133.881 121.625 157.542 148.117 163.378C152.539 164.352 156.912 161.549 157.885 157.117C158.857 152.685 156.06 148.302 151.637 147.328C132.513 143.115 118.199 126.009 118.199 105.563C118.199 77.3316 98.4958 53.7286 72.1258 47.8021Z" fill="url(#paint11_linear)" fill-opacity="0.2" style="mix-blend-mode:soft-light"/>
<path d="M45.609 65.0076C49.9021 63.5646 52.2151 58.9072 50.7753 54.6048C49.3354 50.3025 44.6879 47.9845 40.3948 49.4275C17.0025 57.2899 0.134521 79.4427 0.134521 105.563C0.134521 131.683 17.0025 153.836 40.3948 161.699C44.6879 163.142 49.3354 160.824 50.7753 156.521C52.2151 152.219 49.9021 147.562 45.609 146.119C28.7019 140.436 16.5324 124.416 16.5324 105.563C16.5324 86.7098 28.7019 70.6903 45.609 65.0076Z" fill="url(#paint12_linear)"/>
<path d="M45.609 65.0076C49.9021 63.5646 52.2151 58.9072 50.7753 54.6048C49.3354 50.3025 44.6879 47.9845 40.3948 49.4275C17.0025 57.2899 0.134521 79.4427 0.134521 105.563C0.134521 131.683 17.0025 153.836 40.3948 161.699C44.6879 163.142 49.3354 160.824 50.7753 156.521C52.2151 152.219 49.9021 147.562 45.609 146.119C28.7019 140.436 16.5324 124.416 16.5324 105.563C16.5324 86.7098 28.7019 70.6903 45.609 65.0076Z" fill="url(#paint13_linear)" fill-opacity="0.5" style="mix-blend-mode:hard-light"/>
<path d="M45.609 65.0076C49.9021 63.5646 52.2151 58.9072 50.7753 54.6048C49.3354 50.3025 44.6879 47.9845 40.3948 49.4275C17.0025 57.2899 0.134521 79.4427 0.134521 105.563C0.134521 131.683 17.0025 153.836 40.3948 161.699C44.6879 163.142 49.3354 160.824 50.7753 156.521C52.2151 152.219 49.9021 147.562 45.609 146.119C28.7019 140.436 16.5324 124.416 16.5324 105.563C16.5324 86.7098 28.7019 70.6903 45.609 65.0076Z" fill="url(#paint14_linear)" fill-opacity="0.2" style="mix-blend-mode:soft-light"/>
<path d="M179.848 49.5095C175.561 48.0478 170.903 50.3454 169.445 54.6414C167.986 58.9374 170.279 63.605 174.566 65.0667C191.382 70.8009 203.468 86.775 203.468 105.563C203.468 124.351 191.382 140.325 174.566 146.059C170.279 147.521 167.986 152.189 169.445 156.485C170.903 160.781 175.561 163.078 179.848 161.617C203.114 153.683 219.866 131.593 219.866 105.563C219.866 79.5327 203.114 57.4428 179.848 49.5095Z" fill="url(#paint15_linear)"/>
<path d="M179.848 49.5095C175.561 48.0478 170.903 50.3454 169.445 54.6414C167.986 58.9374 170.279 63.605 174.566 65.0667C191.382 70.8009 203.468 86.775 203.468 105.563C203.468 124.351 191.382 140.325 174.566 146.059C170.279 147.521 167.986 152.189 169.445 156.485C170.903 160.781 175.561 163.078 179.848 161.617C203.114 153.683 219.866 131.593 219.866 105.563C219.866 79.5327 203.114 57.4428 179.848 49.5095Z" fill="url(#paint16_linear)" fill-opacity="0.5" style="mix-blend-mode:hard-light"/>
<path d="M179.848 49.5095C175.561 48.0478 170.903 50.3454 169.445 54.6414C167.986 58.9374 170.279 63.605 174.566 65.0667C191.382 70.8009 203.468 86.775 203.468 105.563C203.468 124.351 191.382 140.325 174.566 146.059C170.279 147.521 167.986 152.189 169.445 156.485C170.903 160.781 175.561 163.078 179.848 161.617C203.114 153.683 219.866 131.593 219.866 105.563C219.866 79.5327 203.114 57.4428 179.848 49.5095Z" fill="url(#paint17_linear)" fill-opacity="0.2" style="mix-blend-mode:soft-light"/>
<path d="M99.0897 149.168C102.424 146.097 102.643 140.899 99.5785 137.558C96.5145 134.217 91.3278 133.997 87.9938 137.068C82.5922 142.043 75.9216 145.63 68.5375 147.289C64.1191 148.282 61.3405 152.677 62.3314 157.105C63.3223 161.533 67.7074 164.317 72.1258 163.324C82.3877 161.018 91.6297 156.038 99.0897 149.168Z" fill="url(#paint18_linear)"/>
<path d="M99.0897 149.168C102.424 146.097 102.643 140.899 99.5785 137.558C96.5145 134.217 91.3278 133.997 87.9938 137.068C82.5922 142.043 75.9216 145.63 68.5375 147.289C64.1191 148.282 61.3405 152.677 62.3314 157.105C63.3223 161.533 67.7074 164.317 72.1258 163.324C82.3877 161.018 91.6297 156.038 99.0897 149.168Z" fill="url(#paint19_linear)" fill-opacity="0.5" style="mix-blend-mode:hard-light"/>
<path d="M99.0897 149.168C102.424 146.097 102.643 140.899 99.5785 137.558C96.5145 134.217 91.3278 133.997 87.9938 137.068C82.5922 142.043 75.9216 145.63 68.5375 147.289C64.1191 148.282 61.3405 152.677 62.3314 157.105C63.3223 161.533 67.7074 164.317 72.1258 163.324C82.3877 161.018 91.6297 156.038 99.0897 149.168Z" fill="url(#paint20_linear)" fill-opacity="0.2" style="mix-blend-mode:soft-light"/>
<path d="M151.637 63.7981C156.06 62.8239 158.857 58.4412 157.885 54.0091C156.912 49.5771 152.539 46.774 148.116 47.7483C137.081 50.1794 127.215 55.6991 119.46 63.3404C116.231 66.5219 116.187 71.7241 119.362 74.9599C122.537 78.1957 127.728 78.2397 130.957 75.0582C136.574 69.5235 143.697 65.5474 151.637 63.7981Z" fill="#020059"/>
<path d="M72.1257 47.8022C67.7073 46.8092 63.3222 49.5937 62.3313 54.0216C61.3405 58.4495 64.119 62.844 68.5374 63.837C87.5746 68.1155 101.801 85.18 101.801 105.563C101.801 133.881 121.625 157.542 148.116 163.378C152.539 164.352 156.912 161.549 157.885 157.117C158.857 152.685 156.06 148.303 151.637 147.328C132.513 143.115 118.199 126.009 118.199 105.563C118.199 77.3317 98.4957 53.7287 72.1257 47.8022Z" fill="#020059"/>
<path d="M99.0896 149.168C102.424 146.097 102.642 140.899 99.5784 137.558C96.5144 134.217 91.3277 133.998 87.9937 137.068C82.5921 142.043 75.9215 145.63 68.5374 147.289C64.119 148.282 61.3405 152.677 62.3313 157.105C63.3222 161.533 67.7073 164.317 72.1257 163.324C82.3876 161.018 91.6297 156.038 99.0896 149.168Z" fill="#020059"/>
</g>
<defs>
<linearGradient id="paint0_linear" x1="258.319" y1="8.99134" x2="-42.7184" y2="-14.1482" gradientUnits="userSpaceOnUse">
<stop stop-color="#FF0000"/>
<stop offset="0.50577" stop-color="#B608BA"/>
<stop offset="1" stop-color="#0057FF"/>
</linearGradient>
<linearGradient id="paint1_linear" x1="255.682" y1="131.971" x2="144.06" y2="-55.6747" gradientUnits="userSpaceOnUse">
<stop stop-color="#0057FF"/>
<stop offset="0.502958" stop-color="#B608BA"/>
<stop offset="1" stop-color="#FF0000"/>
<stop offset="1" stop-color="#FF0000"/>
</linearGradient>
<linearGradient id="paint2_linear" x1="126.347" y1="176.676" x2="186.439" y2="21.8355" gradientUnits="userSpaceOnUse">
<stop stop-color="#0057FF"/>
<stop offset="0.502958" stop-color="#B608BA"/>
<stop offset="1" stop-color="#FF0000"/>
</linearGradient>
<linearGradient id="paint3_linear" x1="258.319" y1="8.99134" x2="-42.7184" y2="-14.1482" gradientUnits="userSpaceOnUse">
<stop stop-color="#FF0000"/>
<stop offset="0.50577" stop-color="#B608BA"/>
<stop offset="1" stop-color="#0057FF"/>
</linearGradient>
<linearGradient id="paint4_linear" x1="255.682" y1="131.971" x2="144.06" y2="-55.6747" gradientUnits="userSpaceOnUse">
<stop stop-color="#0057FF"/>
<stop offset="0.502958" stop-color="#B608BA"/>
<stop offset="1" stop-color="#FF0000"/>
<stop offset="1" stop-color="#FF0000"/>
</linearGradient>
<linearGradient id="paint5_linear" x1="126.347" y1="176.676" x2="186.439" y2="21.8355" gradientUnits="userSpaceOnUse">
<stop stop-color="#0057FF"/>
<stop offset="0.502958" stop-color="#B608BA"/>
<stop offset="1" stop-color="#FF0000"/>
</linearGradient>
<linearGradient id="paint6_linear" x1="258.319" y1="8.99134" x2="-42.7184" y2="-14.1482" gradientUnits="userSpaceOnUse">
<stop stop-color="#FF0000"/>
<stop offset="0.50577" stop-color="#B608BA"/>
<stop offset="1" stop-color="#0057FF"/>
</linearGradient>
<linearGradient id="paint7_linear" x1="255.682" y1="131.971" x2="144.06" y2="-55.6747" gradientUnits="userSpaceOnUse">
<stop stop-color="#0057FF"/>
<stop offset="0.502958" stop-color="#B608BA"/>
<stop offset="1" stop-color="#FF0000"/>
<stop offset="1" stop-color="#FF0000"/>
</linearGradient>
<linearGradient id="paint8_linear" x1="126.347" y1="176.676" x2="186.439" y2="21.8355" gradientUnits="userSpaceOnUse">
<stop stop-color="#0057FF"/>
<stop offset="0.502958" stop-color="#B608BA"/>
<stop offset="1" stop-color="#FF0000"/>
</linearGradient>
<linearGradient id="paint9_linear" x1="258.319" y1="8.99134" x2="-42.7184" y2="-14.1482" gradientUnits="userSpaceOnUse">
<stop stop-color="#FF0000"/>
<stop offset="0.50577" stop-color="#B608BA"/>
<stop offset="1" stop-color="#0057FF"/>
</linearGradient>
<linearGradient id="paint10_linear" x1="255.682" y1="131.971" x2="144.06" y2="-55.6747" gradientUnits="userSpaceOnUse">
<stop stop-color="#0057FF"/>
<stop offset="0.502958" stop-color="#B608BA"/>
<stop offset="1" stop-color="#FF0000"/>
<stop offset="1" stop-color="#FF0000"/>
</linearGradient>
<linearGradient id="paint11_linear" x1="126.347" y1="176.676" x2="186.439" y2="21.8355" gradientUnits="userSpaceOnUse">
<stop stop-color="#0057FF"/>
<stop offset="0.502958" stop-color="#B608BA"/>
<stop offset="1" stop-color="#FF0000"/>
</linearGradient>
<linearGradient id="paint12_linear" x1="258.319" y1="8.99134" x2="-42.7184" y2="-14.1482" gradientUnits="userSpaceOnUse">
<stop stop-color="#FF0000"/>
<stop offset="0.50577" stop-color="#B608BA"/>
<stop offset="1" stop-color="#0057FF"/>
</linearGradient>
<linearGradient id="paint13_linear" x1="255.682" y1="131.971" x2="144.06" y2="-55.6747" gradientUnits="userSpaceOnUse">
<stop stop-color="#0057FF"/>
<stop offset="0.502958" stop-color="#B608BA"/>
<stop offset="1" stop-color="#FF0000"/>
<stop offset="1" stop-color="#FF0000"/>
</linearGradient>
<linearGradient id="paint14_linear" x1="126.347" y1="176.676" x2="186.439" y2="21.8355" gradientUnits="userSpaceOnUse">
<stop stop-color="#0057FF"/>
<stop offset="0.502958" stop-color="#B608BA"/>
<stop offset="1" stop-color="#FF0000"/>
</linearGradient>
<linearGradient id="paint15_linear" x1="258.319" y1="8.99134" x2="-42.7184" y2="-14.1482" gradientUnits="userSpaceOnUse">
<stop stop-color="#FF0000"/>
<stop offset="0.50577" stop-color="#B608BA"/>
<stop offset="1" stop-color="#0057FF"/>
</linearGradient>
<linearGradient id="paint16_linear" x1="255.682" y1="131.971" x2="144.06" y2="-55.6747" gradientUnits="userSpaceOnUse">
<stop stop-color="#0057FF"/>
<stop offset="0.502958" stop-color="#B608BA"/>
<stop offset="1" stop-color="#FF0000"/>
<stop offset="1" stop-color="#FF0000"/>
</linearGradient>
<linearGradient id="paint17_linear" x1="126.347" y1="176.676" x2="186.439" y2="21.8355" gradientUnits="userSpaceOnUse">
<stop stop-color="#0057FF"/>
<stop offset="0.502958" stop-color="#B608BA"/>
<stop offset="1" stop-color="#FF0000"/>
</linearGradient>
<linearGradient id="paint18_linear" x1="258.319" y1="8.99134" x2="-42.7184" y2="-14.1482" gradientUnits="userSpaceOnUse">
<stop stop-color="#FF0000"/>
<stop offset="0.50577" stop-color="#B608BA"/>
<stop offset="1" stop-color="#0057FF"/>
</linearGradient>
<linearGradient id="paint19_linear" x1="255.682" y1="131.971" x2="144.06" y2="-55.6747" gradientUnits="userSpaceOnUse">
<stop stop-color="#0057FF"/>
<stop offset="0.502958" stop-color="#B608BA"/>
<stop offset="1" stop-color="#FF0000"/>
<stop offset="1" stop-color="#FF0000"/>
</linearGradient>
<linearGradient id="paint20_linear" x1="126.347" y1="176.676" x2="186.439" y2="21.8355" gradientUnits="userSpaceOnUse">
<stop stop-color="#0057FF"/>
<stop offset="0.502958" stop-color="#B608BA"/>
<stop offset="1" stop-color="#FF0000"/>
</linearGradient>
<clipPath id="clip0">
<rect width="220" height="163.632" fill="white" transform="translate(0 0.684082)"/>
</clipPath>
</defs>
</svg>
